<svg width="512" height="512" viewBox="0 0 512 512" fill="none" xmlns="http://www.w3.org/2000/svg">
<g clip-path="url(#clip0)">
<path d="M447.998 437.333V10.667C447.998 4.771 443.227 0 437.331 0H106.664C83.144 0 63.998 19.135 63.998 42.667V469.334C63.998 492.865 83.144 512.001 106.665 512.001H437.332C441.27 512.001 444.874 509.834 446.728 506.366C448.603 502.897 448.395 498.689 446.207 495.418C435.665 479.605 435.644 459.189 446.144 443.355C447.31 441.646 447.998 439.563 447.998 437.333Z" fill="#303C42"/>
<path d="M420.373 490.667H106.664C94.8931 490.667 85.3311 481.094 85.3311 469.334C85.3311 457.574 94.8941 448 106.664 448H420.372C415.789 461.854 415.789 476.813 420.373 490.667Z" fill="#FAFAFA"/>
<path opacity="0.1" d="M95.9981 480C95.9981 468.24 105.561 458.667 117.331 458.667H417.787C418.36 455.065 419.215 451.498 420.373 448H106.664C94.8931 448 85.3311 457.573 85.3311 469.333C85.3311 477.978 90.5471 485.364 97.9591 488.712C96.7491 486.038 95.9981 483.121 95.9981 480Z" fill="black"/>
<path d="M426.664 426.667H106.664C98.8931 426.667 91.6011 428.75 85.3311 432.396V42.667C85.3311 30.907 94.8941 21.334 106.664 21.334H426.664V426.667Z" fill="#546E7A"/>
<path d="M351.998 171.11H298.665V117.777C298.665 111.881 293.894 107.11 287.998 107.11H223.998C218.102 107.11 213.331 111.881 213.331 117.777V171.11H159.998C154.102 171.11 149.331 175.881 149.331 181.777V245.777C149.331 251.673 154.102 256.444 159.998 256.444H213.331V309.777C213.331 315.673 218.102 320.444 223.998 320.444H287.998C293.894 320.444 298.665 315.673 298.665 309.777V256.444H351.998C357.894 256.444 362.665 251.673 362.665 245.777V181.777C362.664 175.88 357.894 171.11 351.998 171.11Z" fill="#303C42"/>
<path d="M341.331 235.11H287.998C282.102 235.11 277.331 239.881 277.331 245.777V299.11H234.664V245.777C234.664 239.881 229.893 235.11 223.997 235.11H170.664V192.443H223.997C229.893 192.443 234.664 187.672 234.664 181.776V128.443H277.331V181.776C277.331 187.672 282.102 192.443 287.998 192.443H341.331V235.11Z" fill="#CE1818"/>
<path d="M298.664 171.109H351.997C354.863 171.109 357.438 172.269 359.354 174.105L295.755 110.506L295.738 110.523C297.523 112.429 298.664 114.954 298.664 117.776V171.109ZM359.668 174.419C361.504 176.334 362.664 178.91 362.664 181.776V245.776C362.664 251.672 357.893 256.443 351.997 256.443H298.664V309.776C298.664 315.672 293.893 320.443 287.997 320.443H223.997C221.112 320.443 218.515 319.275 216.596 317.417L325.846 426.667H426.664V241.415L359.668 174.419ZM213.331 256.443H159.998C157.208 256.443 154.715 255.317 152.816 253.565L152.781 253.6L216.358 317.177C214.5 315.258 213.332 312.661 213.332 309.776V256.443H213.331Z" fill="url(#paint0_linear)"/>
<path d="M447.998 437.333V10.667C447.998 4.771 443.227 0 437.331 0H106.664C83.144 0 63.998 19.135 63.998 42.667V469.334C63.998 492.865 83.144 512.001 106.665 512.001H437.332C441.27 512.001 444.874 509.834 446.728 506.366C448.603 502.897 448.395 498.689 446.207 495.418C435.665 479.605 435.644 459.189 446.144 443.355C447.31 441.646 447.998 439.563 447.998 437.333Z" fill="url(#paint1_linear)"/>
</g>
<defs>
<linearGradient id="paint0_linear" x1="224.241" y1="182.046" x2="447.773" y2="405.58" gradientUnits="userSpaceOnUse">
<stop stop-opacity="0.1"/>
<stop offset="1" stop-opacity="0"/>
</linearGradient>
<linearGradient id="paint1_linear" x1="15.185" y1="137.92" x2="510.8" y2="369.023" gradientUnits="userSpaceOnUse">
<stop stop-color="white" stop-opacity="0.2"/>
<stop offset="1" stop-color="white" stop-opacity="0"/>
</linearGradient>
<clipPath id="clip0">
<rect width="512" height="512" fill="white"/>
</clipPath>
</defs>
</svg>
